<?xml version="1.0" encoding="UTF-8" standalone="no"?>
<!DOCTYPE svg PUBLIC "-//W3C//DTD SVG 1.1//EN" "http://www.w3.org/Graphics/SVG/1.1/DTD/svg11.dtd">
<svg width="100%" height="100%" viewBox="0 0 151 190" version="1.1" xmlns="http://www.w3.org/2000/svg" xmlns:xlink="http://www.w3.org/1999/xlink" xml:space="preserve" xmlns:serif="http://www.serif.com/" style="fill-rule:evenodd;clip-rule:evenodd;stroke-linejoin:round;stroke-miterlimit:2;">
    <g transform="matrix(1,0,0,1,-227,-221.566)">
        <g transform="matrix(0.94375,0,0,0.989583,227,221.566)">
            <rect x="0" y="-0" width="160" height="192" style="fill:none;"/>
            <g transform="matrix(0.392313,-1.06248e-17,1.11408e-17,0.374143,-19.5385,-3.93416e-07)">
                <path d="M376.634,360.302C419.468,341.865 449.537,299.245 449.537,249.73C449.537,212.73 432.391,177.739 403.399,154.997C403.506,152.686 403.561,150.39 403.561,148.129C403.561,66.45 337.11,0 255.432,0C173.754,0 107.304,66.45 107.304,148.128C107.304,150.677 107.373,153.265 107.511,155.872C79.203,178.622 62.463,213.289 62.463,249.73C62.463,316.072 116.436,370.045 182.778,370.045C205.429,370.045 227.406,363.664 246.368,351.843L246.368,491.601L239.365,491.601C233.732,491.601 229.166,496.167 229.166,501.8C229.166,507.433 233.732,512 239.365,512L273.77,512C279.402,512 283.969,507.434 283.969,501.801C283.969,496.168 279.402,491.602 273.77,491.602L266.766,491.602L266.766,352.544C281.972,361.791 299.063,367.553 316.856,369.386L316.856,449.785L313.06,449.785C307.428,449.785 302.861,454.351 302.861,459.984C302.861,465.617 307.428,470.183 313.06,470.183L380.43,470.183C386.062,470.183 390.629,465.617 390.629,459.984C390.629,454.351 386.062,449.785 380.43,449.785L337.256,449.785L337.256,369.771C343.735,369.342 350.075,368.405 356.236,366.987L356.236,397.769C356.236,403.402 360.803,407.968 366.435,407.968C372.067,407.968 376.634,403.402 376.634,397.769L376.634,360.302ZM124.793,168.349C141.779,156.222 161.829,149.814 182.778,149.814C188.411,149.814 192.977,145.248 192.977,139.615C192.977,133.982 188.411,129.416 182.778,129.416C163.434,129.416 144.73,133.974 127.827,142.682C130.692,74.768 186.828,20.399 255.432,20.399C325.863,20.399 383.162,77.698 383.162,148.129C383.162,151.679 383.006,155.337 382.697,159C382.394,162.597 384.015,166.086 386.959,168.175C413.371,186.911 429.138,217.398 429.138,249.731C429.138,287.678 407.873,320.751 376.634,337.662L376.634,259.222L398.504,251.385C403.807,249.485 406.565,243.646 404.665,238.343C402.765,233.039 396.923,230.285 391.623,232.182L266.765,276.922L266.765,191.833C266.765,186.2 262.198,181.634 256.566,181.634C250.933,181.634 246.367,186.2 246.367,191.833L246.367,214.888L229.722,198.243C225.739,194.26 219.281,194.26 215.297,198.243C211.314,202.226 211.314,208.684 215.297,212.668L246.367,243.738L246.367,326.773C228.491,341.542 206.062,349.648 182.777,349.648C127.683,349.648 82.861,304.826 82.861,249.732C82.861,217.877 98.267,187.651 124.073,168.88L124.793,168.349ZM266.767,327.702L266.767,298.591L316.857,280.642L316.857,348.86C298.556,346.584 281.227,339.297 266.767,327.702ZM337.256,349.324L337.256,273.333L356.236,266.532L356.236,345.935C350.124,347.652 343.777,348.803 337.256,349.324Z" style="fill:white;fill-rule:nonzero;"/>
                <path d="M366.435,417.147C360.803,417.147 356.236,421.713 356.236,427.346L356.236,430.406C356.236,436.039 360.803,440.605 366.435,440.605C372.067,440.605 376.634,436.039 376.634,430.406L376.634,427.346C376.634,421.714 372.068,417.147 366.435,417.147Z" style="fill:white;fill-rule:nonzero;"/>
            </g>
        </g>
    </g>
</svg>
